HIERARCHY
ROOT root     
{
	OFFSET 0.0000 0.0000 0.0000
	CHANNELS 6 Xposition Yposition Zposition Zrotation Yrotation Xrotation
	JOINT pelvis   
	{
		OFFSET 0.0000 0.0000 0.0000
		CHANNELS 3 Zrotation Yrotation Xrotation
		JOINT thorax   
		{
			OFFSET 0.0000 23.0750 -5.0000
			CHANNELS 3 Zrotation Yrotation Xrotation
			JOINT rclavicle
			{
				OFFSET 0.0000 28.0009 0.0000
				CHANNELS 3 Zrotation Yrotation Xrotation
				JOINT rhumerus 
				{
					OFFSET -18.5725 5.5939 0.0000
					CHANNELS 3 Zrotation Yrotation Xrotation
					JOINT rradius  
					{
						OFFSET -24.8459 0.0000 0.0000
						CHANNELS 3 Zrotation Yrotation Xrotation
						JOINT rhand    
						{
							OFFSET -24.5477 0.0000 0.0000
							CHANNELS 3 Zrotation Yrotation Xrotation
							End Site
							{
								OFFSET -8.1826 0.0000 0.0000
							}
						}
					}
				}
			}
			JOINT lclavicle
			{
				OFFSET 0.0000 28.0009 0.0000
				CHANNELS 3 Zrotation Yrotation Xrotation
				JOINT lhumerus 
				{
					OFFSET 18.5725 5.5939 0.0000
					CHANNELS 3 Zrotation Yrotation Xrotation
					JOINT lradius  
					{
						OFFSET 24.8459 0.0000 0.0000
						CHANNELS 3 Zrotation Yrotation Xrotation
						JOINT lhand    
						{
							OFFSET 24.5477 0.0000 0.0000
							CHANNELS 3 Zrotation Yrotation Xrotation
							End Site
							{
								OFFSET 8.1826 0.0000 0.0000
							}
						}
					}
				}
			}
			JOINT head     
			{
				OFFSET 0.0000 35.2030 0.0000
				CHANNELS 3 Zrotation Yrotation Xrotation
				End Site
				{
					OFFSET 0.0000 11.7343 0.0000
				}
			}
		}
		JOINT rfemur   
		{
			OFFSET -8.2817 0.0000 0.0000
			CHANNELS 3 Zrotation Yrotation Xrotation
			JOINT rtibia   
			{
				OFFSET 0.0000 -43.3627 0.0000
				CHANNELS 3 Zrotation Yrotation Xrotation
				JOINT rfoot    
				{
					OFFSET 0.0000 -38.2947 0.0000
					CHANNELS 3 Zrotation Yrotation Xrotation
					JOINT rtoes    
					{
						OFFSET 0.0000 0.0000 16.6054
						CHANNELS 3 Zrotation Yrotation Xrotation
						End Site
						{
							OFFSET 0.0000 0.0000 5.5351
						}
					}
				}
			}
		}
		JOINT lfemur   
		{
			OFFSET 8.2817 0.0000 0.0000
			CHANNELS 3 Zrotation Yrotation Xrotation
			JOINT ltibia   
			{
				OFFSET 0.0000 -43.3627 0.0000
				CHANNELS 3 Zrotation Yrotation Xrotation
				JOINT lfoot    
				{
					OFFSET 0.0000 -38.2947 0.0000
					CHANNELS 3 Zrotation Yrotation Xrotation
					JOINT ltoes    
					{
						OFFSET 0.0000 0.0000 16.6054
						CHANNELS 3 Zrotation Yrotation Xrotation
						End Site
						{
							OFFSET 0.0000 0.0000 5.5351
						}
					}
				}
			}
		}
	}
}
MOTION
Frames: 7
Frame Time: .0333333
-15.123 86.374 2.8738 -109.841 87.4033 -91.8287 0 -0 0 -4.52399 3.47833 -6.55872 23.903 -7.74154 6.86905e-05 41.3952 13.096 29.761 -8.84032e-06 88.5495 -9.06674e-06 0.179599 6.20573 0.00969987 -26.0025 15.8355 -0.000164191 -48.4968 18.9588 21.0232 2.07844e-06 -83.9562 -2.6294e-06 5.45329 0.788597 0.0376008 -4.009 8.44867 -8.28067 1.90764 -12.2092 2.81497 -0 -0 18.2418 -5.00763e-05 6.55007 26.4908 2.93195 5.72958e-07 -80.1949 -15.4075 8.71771 -34.5586 -0 -0 15.76 -6.0354e-07 3.46468 2.71401 0.164297 -1.87602e-06 -44.5001 
-13.733 85.846 2.938 -107.876 86.8856 -90.1011 0 -0 0 -4.5835 3.63362 -6.65484 23.8476 -7.74664 3.15494e-05 40.7355 13.3759 29.6822 -3.75754e-05 89.6287 -3.78768e-05 0.180495 6.19567 0.00979975 -25.6842 15.7874 1.12831e-05 -48.6973 19.8772 20.9643 -2.25587e-06 -84.3081 2.04217e-06 5.14878 0.636298 0.028599 -2.67295 8.22405 -7.92259 1.83765 -12.9296 3.37777 -0 -0 19.45 -4.58218e-05 8.64597 26.6481 3.90152 4.91586e-05 -81.2477 -15.4816 8.83272 -34.6268 -0 -0 15.3009 -8.5849e-07 2.82571 3.18096 0.156898 -9.39926e-07 -42.1979 
-12.374 85.311 2.9696 -106.528 86.457 -88.9179 0 -0 0 -4.75959 3.68046 -6.83829 23.873 -7.72189 2.19575e-05 40.0778 13.6973 29.582 -180 89.6592 -180 0.178599 6.2146 0.00969992 -25.4277 15.7662 0.000155314 -48.8389 20.7487 20.8361 2.38211e-06 -84.6442 -2.93294e-06 4.98867 0.465693 0.0203002 -1.25661 8.04323 -7.51906 1.58834 -13.7404 3.71337 -0 -0 20.9548 2.17864e-05 10.997 26.7893 5.00543 -3.59428e-05 -82.1154 -15.309 8.42236 -34.7755 -0 -0 15.4526 -1.03753e-07 2.74194 3.39493 0.162496 -9.62993e-07 -38.5906 
-11.052 84.779 2.9623 -105.527 86.1505 -88.0066 0 -0 0 -5.05726 3.61788 -7.09753 23.9701 -7.66874 -5.30716e-05 39.4402 14.0638 29.466 -180 88.8905 -180 0.1786 6.26362 0.00979994 -25.2499 15.7869 -3.5691e-05 -48.9075 21.5269 20.6472 0 -84.9336 0 4.96534 0.292002 0.0126999 0.212099 7.91331 -7.07525 1.15304 -14.6269 3.7972 -0 -0 22.776 1.59169e-05 13.4833 26.9564 6.20319 4.57392e-05 -82.7657 -14.9449 7.54593 -35.048 -0 -0 16.2649 -2.87928e-06 3.16316 3.25672 0.179897 7.47595e-08 -33.5243 
-9.7691 84.26 2.9139 -104.604 85.9514 -87.1067 0 -0 0 -5.45513 3.46156 -7.40864 24.1082 -7.5907 6.18358e-05 38.8581 14.4743 29.3438 -180 88.3032 -180 0.184203 6.33842 0.0102001 -25.1639 15.8587 2.61069e-05 -48.9074 22.1673 20.4032 6.02082e-07 -85.1604 -1.20157e-06 5.06424 0.1326 0.00590008 1.6908 7.84077 -6.60031 0.549492 -15.5519 3.62507 -0 -0 24.9122 -0.000144191 15.945 27.1968 7.43998 4.72667e-05 -83.1728 -14.4755 6.35596 -35.4857 -0 -0 17.772 3.52565e-07 3.93795 2.69316 0.185294 3.40532e-07 -26.9814 
-8.523 83.761 2.8268 -103.47 85.8351 -85.9536 0 -0 0 -5.91082 3.24408 -7.73436 24.2526 -7.49313 5.63439e-05 38.3652 14.9211 29.221 -180 87.8755 -180 0.196898 6.42974 0.0110999 -25.1748 15.9871 -0.000181579 -48.8469 22.6331 20.1104 0 -85.3089 0 5.26455 0.00589996 0.000300005 3.12748 7.83123 -6.10549 -0.184191 -16.4594 3.21676 -0 -0 27.3403 -8.21481e-05 18.2007 27.5626 8.65078 6.13065e-06 -83.3259 -13.9877 5.04985 -36.0987 -0 -0 19.9407 -3.37498e-06 4.88384 1.70525 0.145704 1.10249e-06 -19.3151 
-7.3073 83.29 2.7066 -101.79 85.7841 -84.2421 0 -0 0 -6.36926 3.0103 -8.03148 24.3636 -7.38192 -1.13074e-05 37.994 15.3968 29.1035 -180 87.6196 -180 0.216298 6.52482 0.0122999 -25.2885 16.1674 -1.98236e-05 -48.7431 22.8978 19.7683 3.08764e-06 -85.3379 -3.3493e-06 5.54335 -0.0708002 -0.00339997 4.46749 7.88933 -5.60573 -0.993209 -17.2769 2.61084 -0 -0 30.0109 4.2313e-05 20.0573 28.1022 9.75818 -5.32507e-05 -83.2222 -13.5316 3.79406 -36.8334 -0 -0 22.6251 6.64097e-07 5.86473 0.403909 0.0414997 4.92973e-08 -11.4228 
